<?xml version="1.0" standalone="no"?>
<!DOCTYPE svg PUBLIC "-//W3C//DTD SVG 20010904//EN"
 "https:////www.w3.org/TR/2001/REC-SVG-20010904/DTD/svg10.dtd">
<svg version="1.0" xmlns="https:////www.w3.org/2000/svg"
 width="1156.000000pt" height="1156.000000pt" viewBox="0 0 1156.000000 1156.000000"
 preserveAspectRatio="xMidYMid meet">
<metadata>
Created by potrace 1.11, written by Peter Selinger 2001-2013
</metadata>
<g transform="translate(0.000000,1156.000000) scale(0.100000,-0.100000)"
fill="#00575c" stroke="none">
<path d="M8155 11442 c-1 -1 -38 -4 -81 -7 -76 -3 -178 -13 -219 -21 -11 -2
-40 -7 -65 -10 -81 -11 -317 -74 -392 -105 -40 -16 -74 -30 -75 -30 -25 -5
-43 -13 -43 -20 0 -5 -3 -8 -7 -7 -20 5 -171 -81 -273 -157 -91 -67 -211 -192
-277 -290 -94 -140 -163 -315 -197 -501 -20 -109 -27 -377 -12 -479 5 -27 9
-64 10 -81 2 -17 5 -35 8 -40 3 -5 9 -25 13 -44 19 -100 108 -310 151 -361 8
-8 14 -20 14 -26 0 -6 3 -13 8 -15 4 -1 27 -30 51 -63 48 -65 215 -235 231
-235 6 0 10 -4 10 -8 0 -5 21 -24 48 -43 26 -18 56 -41 66 -51 11 -10 25 -18
31 -18 7 0 20 -9 30 -20 10 -11 24 -20 32 -20 7 0 13 -4 13 -9 0 -5 8 -11 18
-14 9 -4 35 -17 57 -31 67 -42 343 -179 465 -230 63 -27 147 -63 185 -81 39
-18 82 -36 95 -40 14 -4 39 -15 55 -23 17 -9 35 -17 40 -18 40 -9 428 -193
530 -251 84 -49 201 -135 223 -165 7 -9 18 -23 25 -30 44 -45 92 -145 103
-214 5 -33 8 -153 4 -164 -1 -3 -3 -21 -5 -40 -9 -102 -100 -245 -201 -316
-68 -47 -213 -106 -294 -119 -19 -4 -46 -8 -60 -10 -153 -26 -401 -19 -556 15
-26 6 -49 8 -52 6 -2 -3 -17 1 -32 9 -15 8 -30 12 -32 9 -3 -2 -17 0 -32 6
-15 5 -40 12 -56 15 -15 3 -70 19 -121 36 -52 17 -101 32 -109 34 -8 2 -31 10
-50 18 -19 8 -39 16 -45 18 -5 1 -35 13 -65 27 -62 27 -103 45 -110 47 -5 1
-112 54 -255 127 -94 48 -103 51 -148 49 -49 -2 -108 -78 -208 -271 -18 -36
-37 -68 -42 -71 -5 -3 -8 -9 -7 -13 2 -10 -104 -220 -115 -228 -5 -4 -6 -8 -1
-8 5 0 4 -6 -1 -12 -12 -15 -41 -102 -49 -142 -7 -40 23 -92 76 -131 26 -19
52 -35 58 -35 6 0 12 -4 14 -9 2 -5 57 -37 123 -71 66 -34 125 -66 130 -70 6
-5 13 -8 16 -7 3 1 30 -9 60 -22 81 -36 145 -62 159 -66 5 -1 264 -84 290 -93
22 -7 28 -9 109 -26 40 -9 77 -18 81 -21 4 -3 25 -7 46 -10 22 -4 47 -8 57
-11 10 -3 32 -7 50 -10 18 -2 43 -6 57 -8 14 -3 45 -8 70 -11 25 -3 56 -8 70
-10 72 -13 187 -19 390 -19 256 0 331 5 490 35 30 6 64 12 75 14 54 10 84 18
189 50 284 86 509 217 695 404 95 95 106 109 167 197 78 113 165 304 190 416
2 10 6 28 9 41 3 12 7 33 10 47 3 14 7 36 10 50 25 112 25 453 1 570 -3 14 -8
39 -12 55 -14 74 -58 206 -90 275 -34 72 -101 189 -114 200 -3 3 -17 21 -30
40 -38 55 -114 136 -196 209 -53 48 -226 179 -259 197 -40 21 -70 39 -85 50
-17 14 -77 48 -135 77 -22 11 -48 27 -57 35 -10 8 -18 12 -18 8 0 -4 -21 5
-46 19 -53 30 -235 113 -394 180 -36 15 -84 36 -107 46 -24 11 -45 19 -47 19
-3 0 -36 14 -73 31 -37 17 -77 35 -88 39 -26 11 -107 46 -172 76 -122 55 -168
79 -171 86 -2 4 -11 8 -20 8 -9 0 -28 9 -42 20 -14 11 -31 20 -37 20 -7 0 -13
5 -13 10 0 6 -5 10 -11 10 -18 0 -144 97 -181 139 -47 54 -68 80 -68 86 0 3
-9 25 -21 50 -12 25 -22 67 -23 95 0 27 -5 50 -9 50 -5 0 -5 4 -2 10 3 5 7 34
9 64 4 68 50 170 100 219 20 21 41 37 47 37 6 0 8 4 5 9 -3 4 12 16 34 26 22
10 40 22 40 27 0 4 6 8 14 8 7 0 30 7 50 15 20 8 37 15 38 14 2 0 17 5 33 11
54 21 161 39 267 45 37 2 73 7 79 11 7 4 10 3 7 -2 -4 -5 46 -10 115 -10 67
-1 141 -4 165 -8 23 -3 59 -8 80 -11 55 -7 227 -45 290 -64 18 -5 36 -11 40
-12 4 -1 14 -4 22 -6 15 -5 28 -9 42 -12 29 -8 193 -71 291 -112 155 -66 197
-69 245 -21 18 18 93 140 97 157 1 6 24 57 52 115 110 229 122 257 143 320 27
79 31 126 14 158 -15 30 -62 72 -80 72 -7 0 -14 3 -16 8 -4 10 -176 92 -193
92 -7 0 -15 4 -17 9 -4 10 -338 124 -398 135 -8 2 -28 6 -45 10 -97 23 -155
35 -190 40 -23 4 -52 9 -65 12 -31 7 -67 11 -143 18 -32 3 -62 8 -65 10 -19
11 -497 28 -507 18z"/>
<path d="M1847 11374 c-1 -1 -38 -4 -82 -7 -97 -7 -146 -20 -171 -48 -19 -21
-19 -81 -21 -2548 -1 -1624 2 -2535 8 -2551 25 -66 115 -81 484 -81 374 0 459
14 483 82 4 13 8 86 7 162 0 87 3 137 10 137 7 0 7 3 0 8 -14 10 -14 464 0
474 6 5 6 8 0 8 -14 0 -14 470 0 470 6 0 6 3 0 8 -7 4 -11 90 -11 237 0 147 4
233 11 237 6 5 6 8 0 8 -14 0 -14 470 0 470 6 0 6 3 0 8 -7 5 -11 239 -10 715
0 389 1 707 3 707 6 0 32 -28 32 -34 0 -3 18 -24 40 -48 22 -24 40 -48 40 -55
0 -6 4 -13 9 -15 12 -4 221 -286 221 -297 0 -5 4 -11 8 -13 5 -1 20 -19 33
-39 75 -115 145 -214 152 -217 4 -2 7 -8 7 -13 0 -5 16 -31 35 -58 19 -26 35
-53 35 -60 0 -6 3 -11 8 -11 4 0 16 -17 27 -37 11 -20 25 -41 30 -47 6 -6 17
-24 25 -40 29 -57 35 -66 42 -66 5 0 8 -4 8 -9 0 -6 13 -30 30 -54 17 -25 30
-50 30 -56 0 -6 5 -11 10 -11 6 0 10 -4 10 -10 0 -5 15 -33 33 -62 19 -29 37
-60 40 -68 4 -8 21 -37 38 -65 17 -27 35 -62 42 -77 6 -16 15 -28 19 -28 4 0
8 -4 8 -9 0 -5 16 -38 36 -73 43 -75 109 -198 156 -288 18 -36 36 -66 41 -68
4 -2 7 -12 7 -23 0 -10 3 -19 8 -19 8 0 32 -48 32 -66 0 -7 4 -14 8 -16 10 -4
178 -346 264 -538 11 -25 32 -72 47 -105 15 -33 41 -91 58 -130 17 -38 47
-107 67 -152 20 -45 36 -84 36 -87 0 -2 10 -26 22 -53 11 -26 22 -53 24 -60 1
-7 9 -27 18 -44 9 -18 16 -36 16 -40 0 -5 10 -32 23 -61 21 -47 43 -101 67
-163 52 -133 67 -158 115 -192 63 -44 153 -54 478 -57 108 0 197 3 197 7 0 5
5 5 11 1 7 -4 35 -6 63 -5 184 9 252 28 274 75 6 13 9 986 9 2551 l0 2530 -28
27 c-15 16 -36 28 -47 28 -10 0 -22 3 -25 6 -11 12 -144 17 -392 18 -349 0
-438 -11 -473 -62 -19 -26 -19 -68 -18 -1479 1 -798 -2 -1449 -6 -1446 -5 2
-8 8 -8 13 0 19 -157 346 -217 453 -17 31 -29 57 -25 57 4 0 3 4 -3 8 -10 7
-16 17 -63 101 -13 25 -39 71 -56 101 -18 30 -35 62 -40 70 -9 19 -32 58 -126
212 -82 135 -92 151 -138 220 -18 25 -32 49 -32 53 0 3 -5 11 -10 18 -6 7 -52
75 -102 152 -51 77 -95 142 -100 143 -4 2 -8 9 -8 16 0 7 -8 21 -17 32 -10 10
-42 55 -72 99 -30 44 -65 94 -78 110 -32 41 -33 43 -78 109 -22 33 -48 68 -57
77 -9 10 -25 30 -35 46 -10 15 -23 35 -30 43 -15 19 -229 292 -240 305 -4 6
-25 31 -47 55 -21 25 -62 72 -90 104 -126 145 -281 292 -346 326 -36 18 -67
33 -70 32 -3 -1 -21 3 -40 8 -75 19 -135 23 -403 25 -153 0 -279 0 -280 -1z"/>
<path d="M3364 5491 c-2 -3 -26 -6 -52 -7 -26 -1 -60 -4 -77 -8 -16 -3 -46 -8
-65 -11 -61 -9 -102 -18 -165 -35 -22 -6 -49 -13 -60 -15 -34 -8 -161 -53
-220 -79 -30 -14 -59 -26 -63 -27 -4 -1 -24 -13 -44 -25 -21 -13 -41 -24 -44
-24 -4 0 -22 -11 -40 -25 -18 -14 -36 -25 -39 -25 -4 0 -13 -6 -20 -12 -8 -7
-20 -18 -27 -23 -7 -6 -33 -26 -57 -45 -113 -88 -228 -235 -302 -384 -28 -56
-51 -108 -53 -116 -2 -8 -6 -22 -9 -30 -12 -28 -47 -165 -51 -200 -3 -19 -5
-35 -6 -35 -13 0 -18 -361 -7 -435 28 -179 112 -411 196 -545 14 -22 25 -44
26 -48 0 -4 7 -12 15 -17 8 -5 12 -10 7 -10 -8 0 19 -46 40 -68 23 -24 14 -37
-51 -81 -36 -23 -75 -52 -88 -64 -14 -12 -38 -33 -55 -47 -78 -64 -179 -167
-238 -244 -16 -21 -35 -44 -40 -50 -14 -14 -86 -124 -104 -156 -65 -119 -123
-256 -147 -345 -17 -62 -25 -94 -30 -115 -2 -14 -9 -46 -14 -71 -22 -110 -30
-343 -16 -454 4 -27 8 -66 10 -85 2 -19 6 -44 9 -55 3 -11 8 -31 11 -45 3 -14
12 -50 21 -80 8 -30 17 -62 19 -70 3 -8 5 -16 6 -17 2 -2 3 -6 4 -10 11 -45
105 -246 118 -251 4 -2 8 -8 8 -14 0 -11 92 -148 130 -192 72 -85 207 -213
285 -270 22 -16 46 -36 53 -43 7 -7 20 -13 28 -13 8 0 14 -3 14 -8 0 -4 21
-19 48 -32 26 -14 49 -28 52 -31 18 -23 315 -146 395 -164 11 -3 47 -11 80
-20 33 -8 74 -17 90 -20 17 -3 37 -7 45 -10 18 -4 116 -16 180 -21 121 -10
353 -5 485 10 40 5 227 42 307 61 48 11 234 79 309 112 101 45 281 146 299
168 7 8 16 12 21 9 5 -3 9 -1 9 4 0 5 22 23 48 40 27 17 60 43 74 57 l25 25
219 -215 c245 -241 280 -266 346 -243 36 13 121 72 168 118 17 17 33 30 35 30
5 0 315 310 332 333 28 36 56 101 55 127 -1 59 -9 68 -381 433 -78 76 -141
143 -141 147 0 5 15 37 33 72 28 54 78 162 82 178 1 3 7 19 14 35 44 106 102
274 106 305 1 8 8 29 15 45 7 17 12 34 11 39 -1 5 1 16 5 25 9 21 12 30 19 66
3 17 12 55 20 85 8 30 16 69 19 85 39 213 52 302 61 400 8 83 16 138 21 147 3
5 1 8 -5 8 -6 0 -7 11 -2 28 4 15 8 95 10 179 2 122 0 157 -13 182 -28 54 -85
73 -233 76 -56 2 -106 6 -112 9 -6 4 -11 4 -11 -1 0 -4 -18 -8 -40 -8 -22 0
-40 4 -40 8 0 5 -5 5 -11 2 -16 -11 -69 -12 -69 -2 0 4 -5 5 -11 1 -6 -4 -50
-8 -98 -10 -130 -5 -179 -19 -206 -61 -21 -32 -23 -44 -30 -187 -5 -109 -12
-211 -15 -211 -1 0 -3 -22 -6 -50 -7 -80 -13 -130 -15 -130 -1 0 -3 -9 -4 -20
-5 -35 -15 -100 -21 -125 -2 -14 -7 -39 -9 -56 -11 -79 -113 -433 -130 -452
-5 -5 -459 457 -744 756 -186 196 -193 204 -301 322 -52 57 -106 115 -120 130
-14 14 -52 57 -85 96 -32 38 -66 76 -75 85 -15 16 -45 53 -99 124 -17 22 -34
45 -39 50 -74 92 -155 256 -168 340 -16 99 -9 220 19 310 4 14 37 76 47 89 36
47 95 106 106 106 8 0 14 4 14 8 0 11 115 68 155 77 17 4 30 6 30 4 0 -1 9 2
20 8 63 34 368 38 524 8 14 -3 42 -8 61 -11 19 -3 80 -17 135 -31 55 -14 107
-27 115 -28 8 -2 16 -4 18 -5 1 -2 5 -3 10 -4 14 -3 157 -48 177 -56 102 -41
244 -86 265 -84 8 1 23 2 32 3 27 2 72 45 95 92 12 24 22 47 23 51 0 4 10 29
21 55 32 72 118 316 148 418 45 152 26 198 -107 260 -41 19 -76 35 -80 35 -3
0 -24 8 -46 19 -43 19 -74 32 -91 37 -5 1 -49 16 -97 33 -49 16 -88 27 -88 24
0 -3 -7 0 -15 7 -8 7 -15 10 -15 7 0 -4 -17 0 -37 7 -63 22 -294 68 -463 91
-24 4 -49 9 -54 12 -5 4 -6 1 -1 -7 5 -9 4 -11 -3 -6 -7 4 -29 9 -49 12 -52 7
-482 11 -489 5z m-352 -3151 c50 -55 272 -290 358 -380 25 -26 119 -125 210
-220 163 -170 211 -220 363 -377 l78 -81 -45 -26 c-24 -14 -48 -26 -53 -26 -5
0 -14 -5 -21 -12 -11 -11 -24 -17 -135 -57 -78 -27 -197 -52 -275 -55 -34 -2
-65 -6 -68 -9 -3 -3 -11 -4 -17 -2 -7 3 -48 7 -92 10 -85 6 -140 12 -140 15 0
1 -14 3 -31 5 -17 3 -70 18 -118 35 -281 99 -472 326 -513 610 -12 85 -6 253
11 325 25 101 79 235 99 243 4 2 7 8 7 14 0 14 60 89 124 156 l51 53 78 -83
c44 -46 102 -108 129 -138z"/>
<path d="M6790 5463 c-45 -18 -89 -100 -139 -253 -30 -93 -88 -321 -90 -350 0
-8 -4 -34 -9 -58 -5 -23 -8 -59 -7 -80 1 -20 3 -47 4 -59 1 -30 44 -77 87 -98
47 -22 266 -87 272 -80 3 3 10 1 16 -4 6 -5 45 -16 86 -24 41 -9 86 -18 100
-21 14 -4 45 -9 69 -12 25 -3 47 -7 51 -9 3 -2 26 -6 50 -10 25 -3 56 -8 70
-10 173 -26 260 -36 327 -38 39 -2 53 -6 54 -17 3 -42 4 -3247 1 -3256 -2 -7
-18 -11 -40 -9 -116 11 -146 15 -161 19 -18 5 -82 16 -126 21 -16 2 -78 15
-138 29 -59 14 -118 28 -130 31 -12 2 -38 9 -57 14 -19 5 -46 13 -60 16 -23 7
-239 71 -266 80 -7 2 -30 -6 -53 -17 -33 -16 -46 -32 -70 -83 -27 -56 -147
-393 -156 -437 -2 -9 -13 -51 -25 -93 -27 -96 -28 -169 -3 -204 20 -28 143
-94 208 -112 22 -6 45 -15 50 -19 6 -4 36 -14 68 -21 31 -8 57 -16 57 -19 0
-3 8 -6 18 -7 10 -1 56 -11 102 -23 47 -11 96 -23 110 -25 37 -6 79 -14 130
-25 51 -10 163 -28 230 -35 25 -3 59 -7 75 -10 17 -2 64 -7 105 -10 41 -4 95
-9 120 -11 25 -2 89 -6 143 -8 53 -3 101 -7 105 -9 9 -6 674 0 732 7 25 2 81
7 125 10 44 4 105 9 135 13 30 3 72 6 92 7 21 1 38 5 38 9 0 5 4 6 9 3 4 -3
35 -1 67 4 32 5 77 12 99 15 83 12 254 47 355 72 58 14 110 26 115 28 6 1 17
5 25 8 8 3 44 15 80 27 111 37 213 83 242 108 53 48 50 149 -11 325 -11 31
-17 57 -14 57 3 0 0 7 -7 15 -7 8 -9 15 -5 15 4 0 3 6 -3 12 -6 7 -18 42 -27
78 -39 156 -99 296 -140 328 -15 12 -31 19 -35 17 -5 -3 -11 -1 -14 4 -7 10
-28 6 -191 -44 -127 -39 -250 -72 -300 -81 -16 -3 -55 -11 -85 -19 -30 -7 -73
-16 -95 -19 -47 -7 -89 -14 -130 -21 -39 -7 -143 -18 -175 -19 l-25 -1 -1
1633 c-1 1175 2 1635 10 1640 6 3 34 7 61 8 47 2 109 8 180 19 17 3 48 7 70
10 22 3 55 8 73 11 17 3 49 7 70 10 55 8 84 12 112 19 14 3 48 10 75 15 74 15
85 17 150 33 254 64 340 102 369 162 19 38 24 121 11 185 -3 14 -8 41 -11 60
-5 29 -20 90 -38 155 -2 6 -6 24 -10 40 -21 81 -80 260 -88 263 -4 2 -8 12 -8
23 0 10 -19 39 -43 64 -49 51 -73 55 -164 31 -29 -8 -53 -12 -53 -9 0 3 -6 1
-12 -5 -7 -5 -26 -12 -43 -15 -16 -3 -37 -8 -45 -11 -8 -3 -28 -7 -45 -10 -16
-3 -57 -12 -90 -20 -33 -8 -71 -17 -85 -20 -176 -35 -215 -42 -285 -52 -22 -3
-51 -7 -65 -10 -26 -4 -170 -21 -250 -29 -148 -14 -430 -22 -430 -12 0 4 -8 3
-19 -2 -10 -6 -20 -9 -22 -7 -2 2 -62 7 -134 11 -71 3 -148 8 -170 10 -141 13
-169 15 -198 21 -18 3 -48 7 -67 9 -60 7 -158 23 -194 32 -11 2 -34 6 -51 8
-16 2 -50 9 -75 16 -25 6 -54 12 -65 14 -11 1 -20 3 -20 4 0 2 -11 4 -25 7
-14 2 -41 8 -60 13 -33 10 -156 40 -190 46 -8 2 -15 4 -15 5 0 10 -124 22
-145 13z"/>
</g>
</svg>
